# xmcd
#
# Track frame offsets:
#	150
#	16346
#	27047
#	34191
#	38922
#	52434
#	62621
#	73427
#	81829
#	93985
#	101168
#	108752
#	114000
#	128392
#	143095
#	155916
#	164029
#	175794
#	185125
#	198912
#	207170
#	226283
#	237373
#	254705
#
# Disc length: 3549 seconds
#
# Revision: 0
# Processed by: cddbd v1.5.1PL0 Copyright (c) Steve Scherf et al.
# Submitted via: audiograbber 1.83.01
#
DISCID=560ddb18
DTITLE=Verschiedene - Weihnachtslieder schenken
DYEAR=2003
DGENRE=
TTITLE0=Es hat sich halt eröffnet
TTITLE1=Es hat sich halt eröffnet - zum Mitsingen
TTITLE2=Alle Jahre wieder
TTITLE3=Alle Jahre wieder - zum Mitsingen
TTITLE4=Jetz fangen wir zum singen an
TTITLE5=Jetz fangen wir zum singen an - zum Mitsingen
TTITLE6=Last uns froh und munter sein
TTITLE7=Last uns froh und munter sein - zum Mitsingen
TTITLE8=Leise rieselt der Schnee
TTITLE9=Leise rieselt der Schnee - zum Mitsingen
TTITLE10=Heiliger Nicklaus
TTITLE11=Heiliger Nicklaus - zum Mitsingen
TTITLE12=Wer klopfet an
TTITLE13=Wer klopfet an - zum Mitsingen
TTITLE14=Ihr Kinderlein kommet
TTITLE15=Ihr Kinderlein kommet - zum Mitsingen
TTITLE16=O du fröhliche
TTITLE17=O du fröhliche - zum Mitsingen
TTITLE18=Still, still
TTITLE19=Still, still - zum Mitsingen
TTITLE20=Stille Nacht
TTITLE21=Stille Nacht - zum Mitsingen
TTITLE22=Es wird schon glei dumpa
TTITLE23=Es wird schon glei dumpa - zum Mitsingen
EXTD=
EXTT0=
EXTT1=
EXTT2=
EXTT3=
EXTT4=
EXTT5=
EXTT6=
EXTT7=
EXTT8=
EXTT9=
EXTT10=
EXTT11=
EXTT12=
EXTT13=
EXTT14=
EXTT15=
EXTT16=
EXTT17=
EXTT18=
EXTT19=
EXTT20=
EXTT21=
EXTT22=
EXTT23=
PLAYORDER=
